# xmcd
#
# Track frame offsets:
# 150
# 12692
# 24190
# 37582
# 51475
# 65505
# 79035
# 96847
# 109685
# 122550
# 134807
# 146895
# 160747
# 172535
#
# Disc length: 2494 seconds
#
#
# Revision: 0
# Processed by: cddbd v1.5.2PL0 Copyright (c) Steve Scherf et al.
# Submitted via: FreeRIP 2.52 
#
DISCID=b409bc0e
DTITLE=Varios - California Blues
DYEAR=1997
DGENRE=Blues
TTITLE0=I Don't Want No Bloodstains
TTITLE1=Restless Bedroom Blues
TTITLE2=Television Blues
TTITLE3=Angel Smile
TTITLE4=Let's Renew Our Love
TTITLE5=I Got Lucky
TTITLE6=Prison Bound
TTITLE7=Bumble Bee Blues
TTITLE8=My Last Blues
TTITLE9=Jesus Knows How Much We Can Bear
TTITLE10=Jennie Lee
TTITLE11=Baby Don't You Hear Me Calling
TTITLE12=Johnny Katherine
TTITLE13=Mississippi Blues
EXTD=Smokey Hogg, Lowell Fulson,\nJohn Williams, John Lee Hooker
EXTT0=
EXTT1=
EXTT2=
EXTT3=
EXTT4=
EXTT5=
EXTT6=
EXTT7=
EXTT8=
EXTT9=
EXTT10=
EXTT11=
EXTT12=
EXTT13=
PLAYORDER=
